{
	"asset":{
		"generator":"Khronos glTF Blender I/O v4.2.70",
		"version":"2.0"
	},
	"scene":0,
	"scenes":[
		{
			"name":"Scene",
			"nodes":[
				0
			]
		}
	],
	"nodes":[
		{
			"mesh":0,
			"name":"0"
		}
	],
	"materials":[
		{
			"doubleSided":true,
			"name":"Muchkin2",
			"pbrMetallicRoughness":{
				"baseColorTexture":{
					"index":0
				},
				"metallicFactor":0
			}
		}
	],
	"meshes":[
		{
			"name":"0",
			"primitives":[
				{
					"attributes":{
						"POSITION":0,
						"NORMAL":1,
						"TEXCOORD_0":2
					},
					"indices":3,
					"material":0
				}
			]
		}
	],
	"accessors":[
		{
			"bufferView":0,
			"componentType":5126,
			"count":2526,
			"max":[
				0.12109619379043579,
				0.37553438544273376,
				0.27824482321739197
			],
			"min":[
				-0.11803434789180756,
				-0.011109658516943455,
				-0.4333517551422119
			],
			"type":"VEC3"
		},
		{
			"bufferView":1,
			"componentType":5126,
			"count":2526,
			"type":"VEC3"
		},
		{
			"bufferView":2,
			"componentType":5126,
			"count":2526,
			"type":"VEC2"
		},
		{
			"bufferView":3,
			"componentType":5123,
			"count":13755,
			"type":"SCALAR"
		}
	],
	"bufferViews":[
		{
			"buffer":0,
			"byteLength":30312,
			"byteOffset":0,
			"target":34962
		},
		{
			"buffer":0,
			"byteLength":30312,
			"byteOffset":30312,
			"target":34962
		},
		{
			"buffer":0,
			"byteLength":20208,
			"byteOffset":60624,
			"target":34962
		},
		{
			"buffer":0,
			"byteLength":27510,
			"byteOffset":80832,
			"target":34963
		}
	],
	"buffers":[
		{
			"byteLength":108344,
			"uri":"cat.bin"
		}
	],
	"textures": [
		{
			"sampler":0,
			"source":0
		}
	],
	"samplers": [
		{
		}
	],
	"images": [
		{
			"uri":"base.avif"
		}
	]
}
